<svg width="64" height="64" viewBox="0 0 96 96" fill="none" xmlns="http://www.w3.org/2000/svg">
  <rect width="96" height="96" rx="22" fill="#FFFFFF"/>
  <path d="M27 54C21.8 43.4 25.3 30.2 35.1 23.6C45.8 16.4 60.2 18.8 67.9 29.1C73.7 36.9 74.1 47.3 69.5 55" stroke="#061A3D" stroke-width="5" stroke-linecap="round"/>
  <path d="M48 71C42.6 63.8 35.8 60.6 27.5 61.3H16V46" stroke="#061A3D" stroke-width="5" stroke-linecap="round" stroke-linejoin="round"/>
  <path d="M48 71C53.4 63.8 60.2 60.6 68.5 61.3H80V46" stroke="#061A3D" stroke-width="5" stroke-linecap="round" stroke-linejoin="round"/>
  <path d="M20 56H34.5C39.6 56 44.2 58.1 48 62" stroke="#061A3D" stroke-width="5" stroke-linecap="round"/>
  <path d="M76 56H61.5C56.4 56 51.8 58.1 48 62" stroke="#061A3D" stroke-width="5" stroke-linecap="round"/>
  <path d="M43 49L52.5 30.5L45 52L43 49Z" fill="#0D2B61"/>
  <path d="M43 49L61 39L45 52L43 49Z" fill="#061A3D"/>
  <circle cx="48" cy="46" r="4" fill="white" stroke="#061A3D" stroke-width="1.5"/>
</svg>
